<svg width="24" height="25" viewBox="0 0 24 25" fill="none" xmlns="http://www.w3.org/2000/svg">
<path d="M5 10.4229C5 15.2747 9.24448 19.2869 11.1232 20.8252C11.3921 21.0454 11.5281 21.1568 11.7287 21.2132C11.8849 21.2572 12.1148 21.2572 12.271 21.2132C12.472 21.1567 12.6071 21.0463 12.877 20.8254C14.7557 19.2871 18.9999 15.2751 18.9999 10.4233C18.9999 8.58718 18.2625 6.82605 16.9497 5.52772C15.637 4.22939 13.8566 3.5 12.0001 3.5C10.1436 3.5 8.36301 4.2295 7.05025 5.52783C5.7375 6.82616 5 8.58674 5 10.4229Z" stroke="#F2FEFF" stroke-width="2" stroke-linecap="round" stroke-linejoin="round"/>
<path d="M10 9.5C10 10.6046 10.8954 11.5 12 11.5C13.1046 11.5 14 10.6046 14 9.5C14 8.39543 13.1046 7.5 12 7.5C10.8954 7.5 10 8.39543 10 9.5Z" stroke="#F2FEFF" stroke-width="2" stroke-linecap="round" stroke-linejoin="round"/>
</svg>
